<svg width="32" height="32" viewBox="0 0 32 32" fill="none" xmlns="http://www.w3.org/2000/svg">
<path fill-rule="evenodd" clip-rule="evenodd" d="M0 16C0 7.16333 7.16333 0 16 0C24.8367 0 32 7.16333 32 16C32 24.8367 24.8367 32 16 32C7.16333 32 0 24.8367 0 16Z" fill="#2498C7"/>
<path d="M21.8759 9.11479L6.63897 14.7308C5.81075 14.9687 5.83199 15.765 6.44784 15.9615L10.2597 17.1199L11.725 21.4845C11.9055 21.9602 12.0436 22.1464 12.3515 22.1464C12.67 22.1464 12.7868 22.0326 13.1266 21.7534C13.5089 21.4017 14.1035 20.8432 15.0379 19.9538L19.009 22.8083C19.7417 23.2013 20.262 22.9945 20.4531 22.1464L22.9377 10.149C23.2032 9.11479 22.5767 8.80451 21.8759 9.11479ZM10.865 16.851L19.5399 11.5453C19.9647 11.266 20.1027 11.5763 19.9116 11.7935L12.7125 18.1025L12.3409 21.2569L10.865 16.851Z" fill="white"/>
</svg>