<?xml version="1.0" encoding="UTF-8"?>
<svg xmlns="http://www.w3.org/2000/svg" xmlns:xlink="http://www.w3.org/1999/xlink" width="40px" height="40px" viewBox="0 0 40 40" version="1.1">
<g id="surface1">
<path style=" stroke:none;fill-rule:nonzero;fill:rgb(97.647059%,58.039216%,0%);fill-opacity:1;" d="M 38 20 C 38 29.941406 29.941406 38 20 38 C 10.058594 38 2 29.941406 2 20 C 2 10.058594 10.058594 2 20 2 C 29.941406 2 38 10.058594 38 20 Z M 38 20 "/>
<path style=" stroke:none;fill-rule:evenodd;fill:rgb(100%,100%,100%);fill-opacity:1;" d="M 18.289062 23.699219 C 17.644531 23.550781 17.035156 23.335938 16.460938 23.035156 C 16.253906 22.929688 16.050781 22.816406 15.851562 22.695312 C 15.273438 22.335938 15.09375 21.585938 15.445312 21.007812 C 15.800781 20.417969 16.542969 20.226562 17.136719 20.585938 C 17.722656 20.941406 18.339844 21.195312 19.011719 21.316406 C 20.335938 21.558594 21.582031 21.339844 22.742188 20.65625 C 22.972656 20.519531 23.214844 20.40625 23.496094 20.410156 C 24.042969 20.410156 24.523438 20.761719 24.679688 21.285156 C 24.839844 21.808594 24.636719 22.375 24.175781 22.675781 C 23.449219 23.136719 22.667969 23.46875 21.835938 23.667969 C 21.792969 23.683594 21.761719 23.691406 21.714844 23.707031 C 21.75 23.742188 21.773438 23.769531 21.804688 23.800781 C 22.542969 24.539062 23.285156 25.277344 24.027344 26.027344 C 24.460938 26.460938 24.550781 27.054688 24.261719 27.550781 C 23.847656 28.269531 22.898438 28.382812 22.300781 27.792969 C 21.5625 27.054688 20.824219 26.316406 20.089844 25.582031 C 20.0625 25.558594 20.039062 25.527344 19.980469 25.464844 C 19.957031 25.507812 19.941406 25.542969 19.914062 25.574219 C 19.175781 26.316406 18.4375 27.054688 17.695312 27.792969 C 17.1875 28.300781 16.410156 28.300781 15.925781 27.792969 C 15.46875 27.332031 15.460938 26.597656 15.894531 26.105469 C 15.949219 26.042969 16.019531 25.980469 16.082031 25.917969 C 16.785156 25.210938 17.496094 24.5 18.207031 23.792969 C 18.226562 23.769531 18.25 23.742188 18.289062 23.699219 Z M 18.289062 23.699219 "/>
<path style=" stroke:none;fill-rule:evenodd;fill:rgb(100%,100%,100%);fill-opacity:1;" d="M 20 11.824219 C 22.324219 11.824219 24.21875 13.71875 24.21875 16.042969 C 24.21875 18.371094 22.339844 20.257812 20.003906 20.261719 C 17.652344 20.261719 15.785156 18.371094 15.78125 16.050781 C 15.777344 13.726562 17.660156 11.832031 20 11.824219 Z M 21.742188 16.050781 C 21.742188 15.089844 20.96875 14.304688 20.011719 14.304688 C 19.042969 14.292969 18.257812 15.070312 18.25 16.03125 C 18.25 16.992188 19.027344 17.789062 19.964844 17.789062 C 20.960938 17.789062 21.742188 17.023438 21.742188 16.050781 Z M 21.742188 16.050781 "/>
</g>
</svg>
