<svg width="32" height="32" viewBox="0 0 32 32" fill="none" xmlns="http://www.w3.org/2000/svg">
<path fill-rule="evenodd" clip-rule="evenodd" d="M0 16C0 7.16333 7.16333 0 16 0C24.8367 0 32 7.16333 32 16C32 24.8367 24.8367 32 16 32C7.16333 32 0 24.8367 0 16Z" fill="#4C6C91"/>
<path fill-rule="evenodd" clip-rule="evenodd" d="M16.8854 20.9581C16.8854 20.9581 17.2102 20.9232 17.3768 20.7489C17.5294 20.5892 17.5237 20.2886 17.5237 20.2886C17.5237 20.2886 17.5033 18.887 18.1733 18.6764C18.8334 18.4721 19.6811 20.0348 20.5803 20.6359C21.26 21.0899 21.7753 20.9909 21.7753 20.9909L24.1788 20.9581C24.1788 20.9581 25.4357 20.8828 24.8396 19.9205C24.7903 19.8417 24.4916 19.2085 23.0526 17.9073C21.5447 16.5454 21.7472 16.7657 23.5623 14.4066C24.668 12.9722 25.1095 12.0957 24.9682 11.7212C24.8367 11.3628 24.0234 11.4583 24.0234 11.4583L21.3177 11.4743C21.3177 11.4743 21.1173 11.4478 20.9683 11.5343C20.8228 11.6194 20.7286 11.8174 20.7286 11.8174C20.7286 11.8174 20.3005 12.9276 19.7297 13.8718C18.5248 15.8634 18.0432 15.9708 17.8464 15.8459C17.3881 15.5572 17.5019 14.687 17.5019 14.0691C17.5019 12.1382 17.8028 11.3335 16.9164 11.125C16.6225 11.0552 16.406 11.0099 15.6531 11.0022C14.6872 10.9925 13.8711 11.0057 13.4078 11.2261C13.0999 11.3725 12.8623 11.7003 13.0071 11.7191C13.1857 11.7421 13.5906 11.8251 13.8057 12.1096C14.0827 12.4771 14.0735 13.3021 14.0735 13.3021C14.0735 13.3021 14.2331 15.5747 13.701 15.8571C13.3368 16.0509 12.8363 15.6556 11.7622 13.8481C11.2118 12.9227 10.7963 11.899 10.7963 11.899C10.7963 11.899 10.7162 11.7079 10.5728 11.6047C10.3991 11.4806 10.1573 11.4416 10.1573 11.4416L7.58653 11.4576C7.58653 11.4576 7.19989 11.4681 7.0586 11.6312C6.93276 11.7763 7.04875 12.0768 7.04875 12.0768C7.04875 12.0768 9.06206 16.6632 11.3411 18.9742C13.4317 21.0927 15.8043 20.9539 15.8043 20.9539H16.8798" fill="white"/>
</svg>